# xmcd
#
# Track frame offsets: 
#        150
#        14357
#        26910
#        39880
#        52515
#        62560
#        77723
#        89394
#        99671
#        114403
#
# Disc length: 1781 seconds
#
# Revision: 0
# Processed by: cddbd v1.5.1PL2 Copyright (c) Steve Scherf et al.
# Submitted via: ExactAudioCopy v0.95b1
#
DISCID=6d06f30a
DTITLE=Tammy Wynette - Til I Can Make It On My Own
DYEAR=1976
DGENRE=Country
TTITLE0='Til I Can Make It On My Own
TTITLE1=Just In Case
TTITLE2=He's Just An Old Love Turned Memory
TTITLE3=The World's Most Broken Heart
TTITLE4=If I Could Only Win Your Love
TTITLE5=The Heart
TTITLE6=You Can Be Replaced
TTITLE7=Love Has Something Good
TTITLE8=Where Some Good Love Has Been
TTITLE9=Easy Come, Easy Go
EXTD=
EXTT0=
EXTT1=
EXTT2=
EXTT3=
EXTT4=
EXTT5=
EXTT6=
EXTT7=
EXTT8=
EXTT9=
PLAYORDER=
